<svg id="Layer_1" data-name="Layer 1" xmlns="http://www.w3.org/2000/svg" viewBox="0 0 512 512"><defs><style>.cls-1{fill:#3eb38a;}.cls-2{fill:#ffcf99;}.cls-3{opacity:0.06;}</style></defs><title>data-transfer-flat</title><path class="cls-1" d="M341.33,170.66V210a26.25,26.25,0,0,1-26.26,26.26H131.28v49.82a15.61,15.61,0,0,1-9.71,14.51,17.08,17.08,0,0,1-6.43,1.31,16.11,16.11,0,0,1-11.29-4.59L4.79,201.58a15.54,15.54,0,0,1,0-22.45l99.05-95.77a16.25,16.25,0,0,1,17.72-3.28,15.61,15.61,0,0,1,9.71,14.51v49.82H315.08A26.25,26.25,0,0,1,341.33,170.66Z"/><path class="cls-2" d="M512,321.64a15.44,15.44,0,0,1-4.79,11.22l-99.05,95.77a16.11,16.11,0,0,1-11.29,4.59,17.08,17.08,0,0,1-6.43-1.31,15.61,15.61,0,0,1-9.71-14.51V367.59H196.92a26.25,26.25,0,0,1-26.26-26.26V301.95a26.25,26.25,0,0,1,26.26-26.26H380.72V225.87a15.61,15.61,0,0,1,9.71-14.51,16.25,16.25,0,0,1,17.72,3.28l99.05,95.77A15.44,15.44,0,0,1,512,321.64Z"/><g class="cls-3"><path d="M341.33,190.36V210a26.25,26.25,0,0,1-26.26,26.26H131.28v49.82a15.61,15.61,0,0,1-9.71,14.51,17.08,17.08,0,0,1-6.43,1.31,16.11,16.11,0,0,1-11.29-4.59L4.79,201.58A15.44,15.44,0,0,1,0,190.36Z"/></g><g class="cls-3"><path d="M512,321.64a15.44,15.44,0,0,1-4.79,11.22l-99.05,95.77a16.11,16.11,0,0,1-11.29,4.59,17.08,17.08,0,0,1-6.43-1.31,15.61,15.61,0,0,1-9.71-14.51V367.59H196.92a26.25,26.25,0,0,1-26.26-26.26V321.64Z"/></g></svg>